<?xml version="1.0" encoding="UTF-8"?>
<svg version="1.1" xmlns="http://www.w3.org/2000/svg" width="512" height="512">
<path d="M0 0 C0.89615469 -0.00579339 1.79230938 -0.01158677 2.71562028 -0.01755571 C5.72481667 -0.03562364 8.73399433 -0.04648929 11.7432251 -0.05725098 C13.89829682 -0.06842621 16.05336681 -0.07993954 18.20843506 -0.09176636 C25.29064518 -0.12831937 32.37287308 -0.15353917 39.45513916 -0.1763916 C40.65991063 -0.18033747 41.8646821 -0.18428333 43.1059618 -0.18834877 C54.46666164 -0.22476079 65.82736769 -0.25620546 77.18810654 -0.27745819 C91.72175007 -0.30504839 106.2549064 -0.35585196 120.78834701 -0.43793249 C131.00672233 -0.49369102 141.2249653 -0.5226893 151.44348741 -0.5319314 C157.54726469 -0.5381929 163.6504705 -0.55635214 169.75408173 -0.60331726 C175.49655635 -0.64695755 181.23814644 -0.65747968 186.98075867 -0.64268875 C189.08666446 -0.64301762 191.19260802 -0.65531096 193.29836273 -0.68053818 C211.20016407 -0.88366197 211.20016407 -0.88366197 215.80299377 2.99333191 C216.97315742 4.35878279 218.10956475 5.7535073 219.22076416 7.1673584 C220.53140388 8.46969698 221.84356453 9.77073942 223.17608607 11.05068028 C224.70001746 12.5179853 226.19905284 14.00716781 227.69345093 15.5045166 C228.22072407 16.03273514 228.74799721 16.56095367 229.29124832 17.10517883 C229.83702908 17.65203842 230.38280983 18.19889801 230.94512939 18.7623291 C232.1070275 19.92286983 233.26913772 21.08319824 234.43144226 22.24333191 C237.56549873 25.37285707 240.69641729 28.50550355 243.826617 31.63888574 C247.10778833 34.92259935 250.39141066 38.2038606 253.67463684 41.48551941 C259.1796857 46.98875357 264.68263256 52.494083 270.18438721 58.00061035 C276.54920118 64.37088184 282.91763148 70.73752101 289.28792042 77.10231715 C294.76250316 82.57236818 300.23514271 88.04435757 305.70614964 93.51798505 C308.97187726 96.78527303 312.23828011 100.05187828 315.5064373 103.31673622 C318.57276219 106.38018101 321.63664684 109.4460453 324.69863319 112.51382637 C325.8245238 113.64104312 326.95127346 114.76740256 328.07892609 115.8928566 C329.61313647 117.42435025 331.14425854 118.95886498 332.67460632 120.49421692 C333.53346656 121.35345418 334.39232679 122.21269144 335.2772131 123.09796619 C338.55673467 126.58983039 338.34941261 128.8242621 338.36120605 133.53782654 C338.36566274 134.52951799 338.36566274 134.52951799 338.37020946 135.54124361 C338.37891312 137.76680691 338.38040609 139.99231652 338.38189697 142.21789551 C338.3865239 143.80936295 338.39154839 145.40082928 338.39694214 146.99229431 C338.41007866 151.32281729 338.41651332 155.65332475 338.4209528 159.98386455 C338.423881 162.68717264 338.42798529 165.39047647 338.43245697 168.09378242 C338.44613409 176.54545413 338.45580017 184.99711611 338.45965886 193.44879812 C338.4641428 203.21716654 338.48170533 212.98539525 338.51065946 222.75372118 C338.53224483 230.29684868 338.54236143 237.83993678 338.54369998 245.38309485 C338.54475011 249.89197088 338.550702 254.40071563 338.56851959 258.90955925 C338.58494646 263.14897237 338.58718218 267.38815475 338.57838058 271.62758827 C338.57760735 273.18567903 338.58199038 274.74378192 338.59183884 276.30184174 C338.60447377 278.42480822 338.59872876 280.54694692 338.58825684 282.66990662 C338.5897234 283.85918731 338.59118996 285.048468 338.59270096 286.2737875 C338.22076416 289.1673584 338.22076416 289.1673584 336.90873337 291.01485538 C334.05518512 292.96318652 331.62772028 293.10861778 328.22076416 293.1673584 C324.79334787 291.081105 323.49595379 289.9929273 322.22076416 286.1673584 C322.12939674 284.18857703 322.09882091 282.20679528 322.10050964 280.22590637 C322.09844765 278.36439941 322.09844765 278.36439941 322.09634399 276.46528625 C322.09988313 275.0877378 322.10351794 273.71018958 322.10723877 272.3326416 C322.1075208 270.88394167 322.10736259 269.4352416 322.10679626 267.98654175 C322.10650892 264.05088202 322.11239553 260.11525266 322.11937022 256.1796 C322.12561419 252.06762613 322.12620839 247.95565159 322.12739563 243.84367371 C322.13050586 236.05579568 322.13871511 228.26793166 322.14874512 220.4800598 C322.1599158 211.61438091 322.16541912 202.74870136 322.17044055 193.88301718 C322.18089797 175.64445631 322.19849147 157.40590848 322.22076416 139.1673584 C321.12575089 139.17179962 320.03073761 139.17624084 318.90254211 139.18081665 C308.55990879 139.22144094 298.21729174 139.2513803 287.8745966 139.27098274 C282.55790431 139.28139947 277.24127667 139.29552005 271.92462158 139.3182373 C266.78936061 139.34004103 261.65416166 139.35194289 256.51885796 139.35711288 C254.56415265 139.36079514 252.60945056 139.36798557 250.6547718 139.37881851 C247.907246 139.39343355 245.15997325 139.39533217 242.41241455 139.39440918 C241.21262718 139.40519501 241.21262718 139.40519501 239.98860168 139.41619873 C229.0623441 139.37673654 219.13261208 136.51570242 210.88482666 129.05407715 C192.8954384 109.69375038 199.22076416 87.22542942 199.22076416 60.1673584 C112.59576416 60.6623584 112.59576416 60.6623584 24.22076416 61.1673584 C24.55076416 74.0373584 24.88076416 86.9073584 25.22076416 100.1673584 C32.09614014 100.18137695 32.09614014 100.18137695 39.1104126 100.19567871 C54.22986828 100.22939832 69.34918738 100.28471704 84.46853256 100.35126114 C93.63822477 100.39108902 102.80783069 100.42346242 111.9776001 100.43835449 C119.96896583 100.45135163 127.96014201 100.4782665 135.951401 100.52197146 C140.18367793 100.5446301 144.41572068 100.56026646 148.64806366 100.55924225 C152.630698 100.55849822 156.61281381 100.5763447 160.59531403 100.60852623 C162.05781185 100.61705357 163.52036765 100.61875596 164.98287964 100.61316109 C166.97835607 100.60654345 168.97386793 100.62676316 170.96923828 100.64837646 C172.08645138 100.65206364 173.20366447 100.65575081 174.35473251 100.65954971 C177.88788997 101.28556096 179.04730847 102.36412088 181.22076416 105.1673584 C182.3966739 108.85187558 182.55557754 110.44990115 180.90826416 113.9798584 C179.22076416 116.1673584 179.22076416 116.1673584 177.22076416 117.1673584 C175.19908025 117.26997083 173.17396059 117.30687929 171.14968872 117.31452942 C169.20661583 117.32526237 169.20661583 117.32526237 167.22428894 117.33621216 C165.78024316 117.3390526 164.33619712 117.34176431 162.89215088 117.34436035 C161.37776025 117.35062402 159.86337116 117.35727074 158.34898376 117.36427307 C154.22680104 117.38169557 150.10462993 117.39223897 145.98241949 117.4004786 C143.40637987 117.4056278 140.83034387 117.41170367 138.25430679 117.41798973 C130.19293478 117.43704824 122.13157195 117.45127604 114.07018173 117.4596017 C104.76819089 117.46936721 95.46643845 117.49566592 86.16453159 117.53610259 C78.97376552 117.56628733 71.78306768 117.58107294 64.5922395 117.58438271 C60.29833287 117.58673118 56.00468073 117.59566444 51.71084213 117.62084389 C47.6675252 117.64416998 43.62462944 117.64833978 39.58126259 117.6380825 C38.10105423 117.63758808 36.62082482 117.6438811 35.14068031 117.65763855 C19.03822426 117.79887118 19.03822426 117.79887118 12.67844963 111.68457508 C9.28041566 107.83710744 8.10677256 104.76459106 8.04376221 99.7310791 C8.02450935 98.38871941 8.02450935 98.38871941 8.00486755 97.01924133 C7.99748062 96.05362778 7.99009369 95.08801422 7.98248291 94.09313965 C7.97441116 93.09533981 7.96633942 92.09753998 7.95802307 91.06950378 C7.94418807 88.95541111 7.93346331 86.84129616 7.92559814 84.72717285 C7.90842256 81.5095321 7.86453493 78.29292889 7.82037354 75.07556152 C7.81024293 73.01892843 7.80172798 70.96228663 7.79498291 68.90563965 C7.77747482 67.95014725 7.75996674 66.99465485 7.7419281 66.01020813 C7.76157512 59.89450729 8.70938585 55.26081862 12.22076416 50.1673584 C17.1261929 45.50121886 20.75093681 45.04246699 27.37705994 45.04710388 C28.11057908 45.04624946 28.84409823 45.04539503 29.59984523 45.04451472 C32.06424844 45.04286412 34.52858399 45.04837443 36.99298096 45.05383301 C38.75694782 45.054115 40.5209148 45.05395692 42.28488159 45.0533905 C47.0800158 45.05310298 51.87512511 45.05899241 56.67025352 45.06596446 C61.6790986 45.07220552 66.68794423 45.0728024 71.6967926 45.07398987 C81.18463585 45.07710096 90.67246761 45.08531136 100.1603058 45.09533936 C110.960652 45.10650738 121.76099874 45.11201269 132.56134927 45.11703479 C154.78116083 45.12749415 177.00096137 45.14529017 199.22076416 45.1673584 C199.22076416 35.2673584 199.22076416 25.3673584 199.22076416 15.1673584 C173.28211781 15.25167296 147.34353305 15.34639162 121.40497589 15.45488548 C109.36116301 15.50499975 97.31735691 15.55144287 85.27349854 15.5892334 C74.77564979 15.62218227 64.27785373 15.6620296 53.78006315 15.71014845 C48.22197417 15.73538455 42.66392002 15.75717445 37.10578918 15.77070236 C31.8724357 15.78354882 26.63920181 15.80563129 21.40591431 15.83474159 C19.48711949 15.84379713 17.56830543 15.84950287 15.64949036 15.85157204 C13.02471646 15.85490887 10.40027871 15.87042466 7.77557373 15.8888855 C7.0206868 15.88695076 6.26579988 15.88501603 5.48803759 15.88302267 C-2.14424468 15.96298077 -8.65497339 17.295786 -14.77923584 22.1673584 C-19.84506067 27.6553353 -21.07940375 32.41686754 -21.03650475 39.75683308 C-21.04001082 40.51659694 -21.04351689 41.2763608 -21.04712921 42.0591478 C-21.05645836 44.61370791 -21.05151601 47.16804079 -21.04666138 49.72261047 C-21.05039687 51.56913667 -21.05499799 53.41566128 -21.06039202 55.26218337 C-21.07264986 60.34336485 -21.07235828 65.42448063 -21.07000327 70.50567353 C-21.06959581 75.98296448 -21.0806275 81.46023417 -21.09011841 86.93751526 C-21.10674457 97.67115615 -21.11222868 108.40477508 -21.11334316 119.13842777 C-21.11429286 127.86154687 -21.11839922 136.5846587 -21.12474442 145.3077755 C-21.13949359 166.00496919 -21.15179367 186.70215805 -21.1507473 207.3993578 C-21.15070056 208.39234215 -21.15070056 208.39234215 -21.15065288 209.40538679 C-21.15048667 212.76066304 -21.15028858 216.11593928 -21.15008347 219.47121552 C-21.15004358 220.13759122 -21.15000369 220.80396691 -21.14996259 221.4905358 C-21.14988171 222.83811009 -21.14979812 224.18568438 -21.1497118 225.53325867 C-21.14848628 246.49961717 -21.16349936 267.46591098 -21.19085693 288.43225098 C-21.22157697 311.9852492 -21.23876414 335.53821643 -21.23693049 359.0912382 C-21.23626595 371.56304562 -21.24178614 384.03478009 -21.26328659 396.50657082 C-21.28147393 407.12473956 -21.28586584 417.74280228 -21.27226774 428.36097983 C-21.2657258 433.7796679 -21.26566521 439.19815243 -21.28297424 444.61682129 C-21.29865564 449.57691558 -21.2958918 454.53664411 -21.27840598 459.49672922 C-21.2753252 461.29146284 -21.27900887 463.08622344 -21.29012613 464.88092528 C-21.30424156 467.32117944 -21.29366637 469.76014961 -21.27701378 472.2003603 C-21.28695014 472.89666171 -21.2968865 473.59296312 -21.30712396 474.31036457 C-21.22275579 480.16068011 -19.37111163 485.41874132 -15.33196153 489.70215528 C-7.20564639 496.71621638 1.09297975 496.31486258 11.35354614 496.30107117 C12.58626098 496.30333672 13.81897581 496.30560228 15.08904564 496.30793649 C18.50333738 496.31316744 21.91757641 496.3139221 25.33186841 496.31274211 C29.0170258 496.31253785 32.70217537 496.31805927 36.3873291 496.32279968 C43.60422233 496.331101 50.82110738 496.33385428 58.03800498 496.33441206 C63.90449967 496.33488743 69.77099167 496.33694321 75.6374855 496.34011269 C92.27344625 496.34891753 108.90940055 496.35353228 125.54536365 496.35278221 C126.89023134 496.35272228 126.89023134 496.35272228 128.26226807 496.35266113 C129.15994223 496.35262025 130.0576164 496.35257937 130.98249282 496.35253725 C145.53286902 496.35213074 160.08321935 496.36170206 174.63358806 496.3757995 C189.57710247 496.39016352 204.52060426 496.39706968 219.46412575 496.39620572 C227.85247714 496.39587378 236.24080141 496.39861965 244.62914658 496.40938377 C251.77047952 496.41848907 258.91177304 496.42066375 266.05310927 496.41387435 C269.69559895 496.41060941 273.33801297 496.41055153 276.98049545 496.4192276 C280.93170363 496.42854214 284.88280134 496.42231593 288.83401489 496.41459656 C289.98168583 496.41974012 291.12935676 496.42488368 292.31180561 496.43018311 C301.01255018 496.39258451 308.16290151 495.78156732 315.22076416 490.1673584 C320.06353772 484.92102037 321.46926676 480.53424875 321.47904968 473.44958496 C321.48456324 472.45616529 321.48456324 472.45616529 321.49018818 471.44267654 C321.50014129 469.23103303 321.49602285 467.01964227 321.49200439 464.8079834 C321.49639293 463.21931695 321.50169556 461.6306528 321.50784302 460.04199219 C321.51933305 456.62457879 321.52480169 453.20722732 321.52572441 449.78979492 C321.52766616 444.38596971 321.54572444 438.98227253 321.56648254 433.57849121 C321.61565362 420.15779127 321.64656753 406.73705662 321.66778564 393.31628418 C321.68430397 382.88339091 321.70709962 372.45060754 321.75080639 362.01778793 C321.77259433 356.64596313 321.78063957 351.27434704 321.77841365 345.90248108 C321.78007985 342.56108017 321.79412468 339.21981569 321.81162643 335.87846375 C321.81722766 334.32928967 321.81770958 332.78008732 321.81268883 331.23091125 C321.80655127 329.11533916 321.8187708 327.00062893 321.835495 324.88513184 C321.83750632 323.70159119 321.83951765 322.51805054 321.84158993 321.29864502 C322.260993 317.83514165 323.14507182 315.94542215 325.22076416 313.1673584 C328.31250168 311.62148964 330.81505968 311.87376318 334.22076416 312.1673584 C337.21269038 314.34649822 338.11895723 315.55051788 338.72692204 319.23413086 C338.72972896 320.44637329 338.73253588 321.65861572 338.73542786 322.90759277 C338.74237338 323.58449693 338.74931891 324.26140108 338.75647491 324.95881748 C338.77476771 327.2265832 338.76447485 329.49330539 338.75421143 331.7611084 C338.76126929 333.38753543 338.77001375 335.0139559 338.78031921 336.6403656 C338.80285107 341.06032229 338.79986274 345.47992148 338.79099774 349.89991379 C338.78588792 353.59469118 338.79318127 357.28940139 338.80046982 360.98417187 C338.81748457 369.70951892 338.81389152 378.43469122 338.79718018 387.16003418 C338.78029894 396.14186384 338.79603452 405.12320607 338.82840306 414.10498238 C338.85517265 421.82751612 338.86235389 429.54989884 338.85388798 437.27247429 C338.84897503 441.87947259 338.85108384 446.48617844 338.87167549 451.09313965 C338.89014568 455.43373616 338.88393689 459.77363858 338.85947609 464.11419868 C338.85450182 465.69913964 338.85786904 467.28413447 338.87062454 468.86903191 C338.97119399 482.45003752 336.30142028 493.0058588 326.62310791 503.03845215 C320.12924308 508.7931779 312.29255615 512.41176582 303.54408646 512.4246273 C302.43058736 512.4310762 301.31708827 512.43752509 300.16984677 512.4441694 C298.95682346 512.4410722 297.74380015 512.43797499 296.49401855 512.43478394 C295.19737801 512.43931505 293.90073747 512.44384616 292.56480479 512.44851458 C288.97194087 512.46073515 285.37917013 512.46048523 281.78629017 512.45812583 C277.90885296 512.45771742 274.03144553 512.46875915 270.15402222 512.47824097 C262.55945998 512.49484706 254.96492879 512.50035035 247.37034991 512.50146572 C241.19589804 512.50241644 235.02145639 512.50652791 228.84700775 512.51286697 C211.33577404 512.53047877 193.82456484 512.53970601 176.31332222 512.53820603 C175.36947728 512.53812611 174.42563234 512.5380462 173.45318604 512.53796387 C172.03568696 512.53784123 172.03568696 512.53784123 170.58955154 512.53771611 C155.27744518 512.53690335 139.96543722 512.55603846 124.65335932 512.5842406 C108.92560148 512.61297941 93.19789161 512.62678033 77.47010684 512.62505305 C68.6423545 512.62438946 59.8147053 512.62986788 50.98697662 512.65140915 C43.47017368 512.66963413 35.95352063 512.67395754 28.43670514 512.6603903 C24.60351526 512.65386709 20.77061283 512.65371972 16.93745041 512.6710968 C12.77656496 512.68976507 8.61634299 512.67725614 4.45544434 512.66183472 C3.25134391 512.67212184 2.04724349 512.68240897 0.80665517 512.69300783 C-9.86955364 512.60563993 -18.8177955 509.72583856 -26.74407959 502.33532715 C-37.62171519 491.09307806 -38.51273849 479.35652655 -38.40742493 464.55599976 C-38.41247629 462.68010377 -38.41970966 460.80421261 -38.42892307 458.92833245 C-38.44778787 453.7982725 -38.43564413 448.66869165 -38.41820014 443.53864408 C-38.40479855 437.99666448 -38.42027316 432.45475369 -38.43202209 426.91278076 C-38.45038143 416.06640498 -38.441898 405.2202096 -38.42393387 394.37383948 C-38.40989804 385.55840859 -38.40601719 376.7430266 -38.40937614 367.9275856 C-38.40985359 366.67208471 -38.41033103 365.41658381 -38.41082294 364.12303744 C-38.41184928 361.57239514 -38.41290464 359.02175286 -38.4139887 356.4711106 C-38.42281074 333.24715727 -38.40417514 310.0233072 -38.37345847 286.79938282 C-38.34559268 265.610321 -38.34063826 244.42137395 -38.35565186 223.2322998 C-38.35947447 217.80475814 -38.36326932 212.37721646 -38.36682224 206.94967461 C-38.36726006 206.28142398 -38.36769787 205.61317335 -38.36814895 204.92467271 C-38.37939394 187.203499 -38.37196332 169.48233249 -38.3589415 151.76116097 C-38.35709713 149.22060721 -38.3552624 146.68005344 -38.35343742 144.13949966 C-38.35252533 142.88954058 -38.35161324 141.63958149 -38.35067352 140.35174485 C-38.34506936 131.5467613 -38.34837412 122.74180678 -38.35498238 113.9368248 C-38.36271577 103.20687667 -38.35596239 92.47705187 -38.33080734 81.74712859 C-38.3183134 76.27347454 -38.31216471 70.80001248 -38.323349 65.32635117 C-38.33339734 60.31398477 -38.32491879 55.30200108 -38.30176782 50.28968121 C-38.29661311 48.47830571 -38.29816209 46.66689585 -38.30716247 44.85553537 C-38.37201641 30.61693687 -36.4191792 19.9496067 -26.11907959 9.4798584 C-18.20782017 2.27142157 -10.53819881 0.02339025 0 0 Z M215.22076416 27.1673584 C215.12777199 37.03412293 215.05685161 46.90078188 215.01351547 56.76789665 C214.99270824 61.35042765 214.96451729 65.93265713 214.91900635 70.51501465 C214.87530206 74.94356341 214.85157552 79.37182354 214.84125519 83.80057144 C214.83390767 85.48375105 214.81956038 87.16691622 214.79784393 88.84997177 C214.4200675 103.42010139 214.4200675 103.42010139 220.88330078 116.06063843 C226.13916258 121.17332756 232.82981379 123.49509804 240.10264587 123.5406189 C240.79389053 123.52983307 241.48513519 123.51904724 242.19732666 123.50793457 C242.94951981 123.50837265 243.70171295 123.50881073 244.47669983 123.50926208 C246.93332986 123.50719204 249.38925515 123.483947 251.84576416 123.46032715 C253.5606855 123.45472482 255.27561167 123.45045773 256.99053955 123.44746399 C261.48194878 123.43606534 265.97306227 123.40664162 270.46435547 123.37335205 C275.05629477 123.34254322 279.64828232 123.32893564 284.24029541 123.31384277 C293.2339142 123.28176666 302.22731449 123.23063125 311.22076416 123.1673584 C306.54515391 117.55213175 301.55714572 112.36140656 296.38555908 107.20275879 C295.51822144 106.33366882 294.65088379 105.46457886 293.75726318 104.56915283 C291.39792481 102.20618842 289.03638593 99.84546878 286.67364287 97.48591161 C284.19690478 95.01171854 281.72262232 92.53507162 279.24794006 90.05882263 C275.09980738 85.90887653 270.94958325 81.7610308 266.79815674 77.61437988 C261.99396145 72.81564718 257.19340821 68.01329359 252.39468879 63.20908552 C248.26988382 59.07975144 244.14314459 54.95235801 240.01476365 50.82659906 C237.55065062 48.36404715 235.0872234 45.90081939 232.62553978 43.4358387 C229.88954266 40.69643213 227.14949434 37.9611008 224.40899658 35.22619629 C223.5898024 34.40497787 222.77060822 33.58375946 221.92658997 32.73765564 C220.81424484 31.62954025 220.81424484 31.62954025 219.6794281 30.4990387 C219.0318262 29.85181382 218.3842243 29.20458895 217.7169981 28.5377512 C216.43601845 27.05478919 216.43601845 27.05478919 215.22076416 27.1673584 Z " fill="#000000" transform="translate(105.77923583984375,-0.1673583984375)"/>
<path d="M0 0 C1.89271637 -0.01925285 1.89271637 -0.01925285 3.82366943 -0.03889465 C5.20828865 -0.04706316 6.59291231 -0.05450668 7.97753906 -0.0612793 C8.6743 -0.06535482 9.37106094 -0.06943035 10.08893585 -0.07362938 C13.7786886 -0.09449328 17.46840414 -0.10879209 21.15820312 -0.11816406 C24.96250317 -0.12921364 28.76621588 -0.16359487 32.57030869 -0.20333576 C35.50092628 -0.22953416 38.43140482 -0.23785883 41.36212921 -0.24144554 C42.7639181 -0.2463053 44.16570103 -0.25790202 45.56737518 -0.27648354 C47.53435585 -0.30093274 49.50162257 -0.2974845 51.46875 -0.29296875 C52.58634705 -0.29883499 53.70394409 -0.30470123 54.85540771 -0.31074524 C59.55230745 0.41936233 62.69985072 2.70530056 65.80566406 6.23950195 C68.03424079 9.87560083 68.13194474 12.92933801 68.17016602 17.09790039 C68.18941887 18.92559967 68.18941887 18.92559967 68.20906067 20.79022217 C68.2164476 22.10895325 68.22383453 23.42768433 68.23144531 24.78637695 C68.23552084 25.45890755 68.23959637 26.13143814 68.24379539 26.82434845 C68.26463889 30.38558136 68.27894676 33.94677597 68.28833008 37.50805664 C68.29937803 41.17435608 68.33376312 44.84004582 68.37350178 48.50613022 C68.39973238 51.33556189 68.40802765 54.16484985 68.41161156 56.9943924 C68.41881113 58.99901494 68.44522362 61.00353897 68.47200012 63.00799561 C68.44345458 75.01991867 68.44345458 75.01991867 63.99316406 80.17700195 C57.70731414 85.32042102 50.10027288 84.75849616 42.36816406 84.70825195 C41.06669434 84.71207886 39.76522461 84.71590576 38.42431641 84.71984863 C35.68079445 84.7257167 32.93779653 84.71726932 30.19433594 84.69848633 C26.69740068 84.67569704 23.20169378 84.68883486 19.70480347 84.71277618 C16.34249483 84.73079837 12.98050746 84.71813875 9.61816406 84.70825195 C8.37212402 84.71634888 7.12608398 84.7244458 5.84228516 84.73278809 C-0.81312441 84.6613595 -6.67887966 84.53878755 -12.00683594 80.17700195 C-17.33533158 73.97702091 -16.5707561 66.99812634 -16.50292969 59.1418457 C-16.5030849 57.77616804 -16.50457758 56.41048994 -16.50733948 55.04481506 C-16.50871872 52.19276279 -16.49624485 49.34121632 -16.47338867 46.48925781 C-16.44497761 42.84541129 -16.44775468 39.2024024 -16.46047878 35.55849361 C-16.46745405 32.74191715 -16.45962624 29.92553218 -16.44722176 27.10898018 C-16.44055247 25.11603505 -16.44483633 23.12306292 -16.44932556 21.13011169 C-16.43664139 19.9118721 -16.42395721 18.69363251 -16.41088867 17.43847656 C-16.40548569 16.37149033 -16.4000827 15.30450409 -16.39451599 14.20518494 C-15.77374239 9.3562998 -14.05644647 6.12421145 -10.44433594 2.86450195 C-6.65055901 0.238041 -4.60878143 0.04071178 0 0 Z M-0.00683594 16.17700195 C-0.00683594 33.33700195 -0.00683594 50.49700195 -0.00683594 68.17700195 C17.15316406 68.17700195 34.31316406 68.17700195 51.99316406 68.17700195 C51.99316406 51.01700195 51.99316406 33.85700195 51.99316406 16.17700195 C34.83316406 16.17700195 17.67316406 16.17700195 -0.00683594 16.17700195 Z " fill="#000000" transform="translate(130.0068359375,377.822998046875)"/>
<path d="M0 0 C1.89271637 -0.01925285 1.89271637 -0.01925285 3.82366943 -0.03889465 C5.20828865 -0.04706316 6.59291231 -0.05450668 7.97753906 -0.0612793 C8.6743 -0.06535482 9.37106094 -0.06943035 10.08893585 -0.07362938 C13.7786886 -0.09449328 17.46840414 -0.10879209 21.15820312 -0.11816406 C24.96250317 -0.12921364 28.76621588 -0.16359487 32.57030869 -0.20333576 C35.50092628 -0.22953416 38.43140482 -0.23785883 41.36212921 -0.24144554 C42.7639181 -0.2463053 44.16570103 -0.25790202 45.56737518 -0.27648354 C47.53435585 -0.30093274 49.50162257 -0.2974845 51.46875 -0.29296875 C52.58634705 -0.29883499 53.70394409 -0.30470123 54.85540771 -0.31074524 C59.55230745 0.41936233 62.69985072 2.70530056 65.80566406 6.23950195 C68.03424079 9.87560083 68.13194474 12.92933801 68.17016602 17.09790039 C68.18941887 18.92559967 68.18941887 18.92559967 68.20906067 20.79022217 C68.2164476 22.10895325 68.22383453 23.42768433 68.23144531 24.78637695 C68.23552084 25.45890755 68.23959637 26.13143814 68.24379539 26.82434845 C68.26463889 30.38558136 68.27894676 33.94677597 68.28833008 37.50805664 C68.29937803 41.17435608 68.33376312 44.84004582 68.37350178 48.50613022 C68.39973238 51.33556189 68.40802765 54.16484985 68.41161156 56.9943924 C68.41881113 58.99901494 68.44522362 61.00353897 68.47200012 63.00799561 C68.44345458 75.01991867 68.44345458 75.01991867 63.99316406 80.17700195 C57.70731414 85.32042102 50.10027288 84.75849616 42.36816406 84.70825195 C41.06669434 84.71207886 39.76522461 84.71590576 38.42431641 84.71984863 C35.68079445 84.7257167 32.93779653 84.71726932 30.19433594 84.69848633 C26.69740068 84.67569704 23.20169378 84.68883486 19.70480347 84.71277618 C16.34249483 84.73079837 12.98050746 84.71813875 9.61816406 84.70825195 C8.37212402 84.71634888 7.12608398 84.7244458 5.84228516 84.73278809 C-0.81312441 84.6613595 -6.67887966 84.53878755 -12.00683594 80.17700195 C-17.33533158 73.97702091 -16.5707561 66.99812634 -16.50292969 59.1418457 C-16.5030849 57.77616804 -16.50457758 56.41048994 -16.50733948 55.04481506 C-16.50871872 52.19276279 -16.49624485 49.34121632 -16.47338867 46.48925781 C-16.44497761 42.84541129 -16.44775468 39.2024024 -16.46047878 35.55849361 C-16.46745405 32.74191715 -16.45962624 29.92553218 -16.44722176 27.10898018 C-16.44055247 25.11603505 -16.44483633 23.12306292 -16.44932556 21.13011169 C-16.43664139 19.9118721 -16.42395721 18.69363251 -16.41088867 17.43847656 C-16.40548569 16.37149033 -16.4000827 15.30450409 -16.39451599 14.20518494 C-15.77374239 9.3562998 -14.05644647 6.12421145 -10.44433594 2.86450195 C-6.65055901 0.238041 -4.60878143 0.04071178 0 0 Z M-0.00683594 16.17700195 C-0.00683594 33.33700195 -0.00683594 50.49700195 -0.00683594 68.17700195 C17.15316406 68.17700195 34.31316406 68.17700195 51.99316406 68.17700195 C51.99316406 51.01700195 51.99316406 33.85700195 51.99316406 16.17700195 C34.83316406 16.17700195 17.67316406 16.17700195 -0.00683594 16.17700195 Z " fill="#000000" transform="translate(130.0068359375,264.822998046875)"/>
<path d="M0 0 C1.89271637 -0.01925285 1.89271637 -0.01925285 3.82366943 -0.03889465 C5.20828865 -0.04706316 6.59291231 -0.05450668 7.97753906 -0.0612793 C8.6743 -0.06535482 9.37106094 -0.06943035 10.08893585 -0.07362938 C13.7786886 -0.09449328 17.46840414 -0.10879209 21.15820312 -0.11816406 C24.96250317 -0.12921364 28.76621588 -0.16359487 32.57030869 -0.20333576 C35.50092628 -0.22953416 38.43140482 -0.23785883 41.36212921 -0.24144554 C42.7639181 -0.2463053 44.16570103 -0.25790202 45.56737518 -0.27648354 C47.53435585 -0.30093274 49.50162257 -0.2974845 51.46875 -0.29296875 C52.58634705 -0.29883499 53.70394409 -0.30470123 54.85540771 -0.31074524 C59.55230745 0.41936233 62.69985072 2.70530056 65.80566406 6.23950195 C68.03424079 9.87560083 68.13194474 12.92933801 68.17016602 17.09790039 C68.18941887 18.92559967 68.18941887 18.92559967 68.20906067 20.79022217 C68.2164476 22.10895325 68.22383453 23.42768433 68.23144531 24.78637695 C68.23552084 25.45890755 68.23959637 26.13143814 68.24379539 26.82434845 C68.26463889 30.38558136 68.27894676 33.94677597 68.28833008 37.50805664 C68.29937803 41.17435608 68.33376312 44.84004582 68.37350178 48.50613022 C68.39973238 51.33556189 68.40802765 54.16484985 68.41161156 56.9943924 C68.41881113 58.99901494 68.44522362 61.00353897 68.47200012 63.00799561 C68.44345458 75.01991867 68.44345458 75.01991867 63.99316406 80.17700195 C57.70731414 85.32042102 50.10027288 84.75849616 42.36816406 84.70825195 C41.06669434 84.71207886 39.76522461 84.71590576 38.42431641 84.71984863 C35.68079445 84.7257167 32.93779653 84.71726932 30.19433594 84.69848633 C26.69740068 84.67569704 23.20169378 84.68883486 19.70480347 84.71277618 C16.34249483 84.73079837 12.98050746 84.71813875 9.61816406 84.70825195 C8.37212402 84.71634888 7.12608398 84.7244458 5.84228516 84.73278809 C-0.81312441 84.6613595 -6.67887966 84.53878755 -12.00683594 80.17700195 C-17.33533158 73.97702091 -16.5707561 66.99812634 -16.50292969 59.1418457 C-16.5030849 57.77616804 -16.50457758 56.41048994 -16.50733948 55.04481506 C-16.50871872 52.19276279 -16.49624485 49.34121632 -16.47338867 46.48925781 C-16.44497761 42.84541129 -16.44775468 39.2024024 -16.46047878 35.55849361 C-16.46745405 32.74191715 -16.45962624 29.92553218 -16.44722176 27.10898018 C-16.44055247 25.11603505 -16.44483633 23.12306292 -16.44932556 21.13011169 C-16.43664139 19.9118721 -16.42395721 18.69363251 -16.41088867 17.43847656 C-16.40548569 16.37149033 -16.4000827 15.30450409 -16.39451599 14.20518494 C-15.77374239 9.3562998 -14.05644647 6.12421145 -10.44433594 2.86450195 C-6.65055901 0.238041 -4.60878143 0.04071178 0 0 Z M-0.00683594 16.17700195 C-0.00683594 33.33700195 -0.00683594 50.49700195 -0.00683594 68.17700195 C17.15316406 68.17700195 34.31316406 68.17700195 51.99316406 68.17700195 C51.99316406 51.01700195 51.99316406 33.85700195 51.99316406 16.17700195 C34.83316406 16.17700195 17.67316406 16.17700195 -0.00683594 16.17700195 Z " fill="#000000" transform="translate(130.0068359375,151.822998046875)"/>
<path d="M0 0 C0.64988026 -0.00779995 1.29976052 -0.01559991 1.96933413 -0.02363622 C4.14545789 -0.04356934 6.31983519 -0.02778934 8.49597168 -0.01205444 C10.05656454 -0.01883009 11.61714941 -0.02773293 13.17771912 -0.03860474 C17.41541815 -0.06141139 21.65250899 -0.0525564 25.89021873 -0.03670931 C30.32331364 -0.02405726 34.7563562 -0.03578848 39.18945312 -0.04364014 C46.63433184 -0.05273875 54.07896263 -0.04074331 61.52380371 -0.01693726 C70.13318199 0.01027454 78.74196826 0.00146052 87.35133219 -0.02606928 C94.74085005 -0.0487534 102.13018961 -0.05196389 109.51973104 -0.03887594 C113.93419697 -0.03107754 118.34838456 -0.03005037 122.76283264 -0.04655838 C126.91302284 -0.06099388 131.06244924 -0.05099908 135.21255684 -0.0220871 C136.73634637 -0.01547124 138.2602001 -0.0173826 139.78396416 -0.02840042 C141.86327497 -0.04204995 143.94013303 -0.0249543 146.01928711 0 C147.18292534 0.00188513 148.34656357 0.00377026 149.54546356 0.00571251 C152.50964355 0.63491821 152.50964355 0.63491821 154.88794708 2.98319435 C156.86221199 6.21142198 157.06424476 7.91116727 156.50964355 11.63491821 C154.72979951 14.77083391 153.98656149 15.47594557 150.50964355 16.63491821 C148.44092603 16.7328648 146.36915403 16.76992634 144.29812622 16.77536011 C142.99703415 16.78107025 141.69594208 16.7867804 140.35542297 16.79266357 C138.9102479 16.79390892 137.46507272 16.79503402 136.01989746 16.79605103 C134.50049214 16.80067947 132.98108798 16.80570416 131.46168518 16.81109619 C127.33149398 16.82421872 123.20131904 16.83066473 119.07111025 16.83510685 C116.49123573 16.8380375 113.91136566 16.84214227 111.33149338 16.84661102 C103.26105127 16.86028488 95.19061931 16.86995237 87.12016642 16.87381291 C77.80121913 16.8782951 68.48241841 16.89585086 59.16351569 16.92481351 C51.96173508 16.94642013 44.75999575 16.95651663 37.55818307 16.95785403 C33.25605345 16.95890269 28.95406162 16.96482351 24.65196609 16.98267365 C20.60541254 16.999137 16.55910064 17.00131837 12.51252556 16.99253464 C11.02783881 16.99176336 9.54313915 16.99611899 8.05848503 17.00599289 C6.0307388 17.01868726 4.00289573 17.01105302 1.97512817 17.00241089 C0.84061029 17.00387745 -0.29390759 17.00534401 -1.46280479 17.00685501 C-4.86781385 16.58854731 -6.75151379 15.66776575 -9.49035645 13.63491821 C-10.91697863 10.78167384 -10.80069512 8.80037272 -10.49035645 5.63491821 C-7.55389865 0.79589854 -5.57540366 0.00903232 0 0 Z " fill="#000000" transform="translate(237.4903564453125,407.3650817871094)"/>
<path d="M0 0 C0.64988026 -0.00779995 1.29976052 -0.01559991 1.96933413 -0.02363622 C4.14545789 -0.04356934 6.31983519 -0.02778934 8.49597168 -0.01205444 C10.05656454 -0.01883009 11.61714941 -0.02773293 13.17771912 -0.03860474 C17.41541815 -0.06141139 21.65250899 -0.0525564 25.89021873 -0.03670931 C30.32331364 -0.02405726 34.7563562 -0.03578848 39.18945312 -0.04364014 C46.63433184 -0.05273875 54.07896263 -0.04074331 61.52380371 -0.01693726 C70.13318199 0.01027454 78.74196826 0.00146052 87.35133219 -0.02606928 C94.74085005 -0.0487534 102.13018961 -0.05196389 109.51973104 -0.03887594 C113.93419697 -0.03107754 118.34838456 -0.03005037 122.76283264 -0.04655838 C126.91302284 -0.06099388 131.06244924 -0.05099908 135.21255684 -0.0220871 C136.73634637 -0.01547124 138.2602001 -0.0173826 139.78396416 -0.02840042 C141.86327497 -0.04204995 143.94013303 -0.0249543 146.01928711 0 C147.18292534 0.00188513 148.34656357 0.00377026 149.54546356 0.00571251 C152.50964355 0.63491821 152.50964355 0.63491821 154.88794708 2.98319435 C156.86221199 6.21142198 157.06424476 7.91116727 156.50964355 11.63491821 C154.72979951 14.77083391 153.98656149 15.47594557 150.50964355 16.63491821 C148.44092603 16.7328648 146.36915403 16.76992634 144.29812622 16.77536011 C142.99703415 16.78107025 141.69594208 16.7867804 140.35542297 16.79266357 C138.9102479 16.79390892 137.46507272 16.79503402 136.01989746 16.79605103 C134.50049214 16.80067947 132.98108798 16.80570416 131.46168518 16.81109619 C127.33149398 16.82421872 123.20131904 16.83066473 119.07111025 16.83510685 C116.49123573 16.8380375 113.91136566 16.84214227 111.33149338 16.84661102 C103.26105127 16.86028488 95.19061931 16.86995237 87.12016642 16.87381291 C77.80121913 16.8782951 68.48241841 16.89585086 59.16351569 16.92481351 C51.96173508 16.94642013 44.75999575 16.95651663 37.55818307 16.95785403 C33.25605345 16.95890269 28.95406162 16.96482351 24.65196609 16.98267365 C20.60541254 16.999137 16.55910064 17.00131837 12.51252556 16.99253464 C11.02783881 16.99176336 9.54313915 16.99611899 8.05848503 17.00599289 C6.0307388 17.01868726 4.00289573 17.01105302 1.97512817 17.00241089 C0.84061029 17.00387745 -0.29390759 17.00534401 -1.46280479 17.00685501 C-4.86781385 16.58854731 -6.75151379 15.66776575 -9.49035645 13.63491821 C-10.91697863 10.78167384 -10.80069512 8.80037272 -10.49035645 5.63491821 C-7.55389865 0.79589854 -5.57540366 0.00903232 0 0 Z " fill="#000000" transform="translate(237.4903564453125,377.3650817871094)"/>
<path d="M0 0 C0.64988026 -0.00779995 1.29976052 -0.01559991 1.96933413 -0.02363622 C4.14545789 -0.04356934 6.31983519 -0.02778934 8.49597168 -0.01205444 C10.05656454 -0.01883009 11.61714941 -0.02773293 13.17771912 -0.03860474 C17.41541815 -0.06141139 21.65250899 -0.0525564 25.89021873 -0.03670931 C30.32331364 -0.02405726 34.7563562 -0.03578848 39.18945312 -0.04364014 C46.63433184 -0.05273875 54.07896263 -0.04074331 61.52380371 -0.01693726 C70.13318199 0.01027454 78.74196826 0.00146052 87.35133219 -0.02606928 C94.74085005 -0.0487534 102.13018961 -0.05196389 109.51973104 -0.03887594 C113.93419697 -0.03107754 118.34838456 -0.03005037 122.76283264 -0.04655838 C126.91302284 -0.06099388 131.06244924 -0.05099908 135.21255684 -0.0220871 C136.73634637 -0.01547124 138.2602001 -0.0173826 139.78396416 -0.02840042 C141.86327497 -0.04204995 143.94013303 -0.0249543 146.01928711 0 C147.18292534 0.00188513 148.34656357 0.00377026 149.54546356 0.00571251 C152.50964355 0.63491821 152.50964355 0.63491821 154.88794708 2.98319435 C156.86221199 6.21142198 157.06424476 7.91116727 156.50964355 11.63491821 C154.72979951 14.77083391 153.98656149 15.47594557 150.50964355 16.63491821 C148.44092603 16.7328648 146.36915403 16.76992634 144.29812622 16.77536011 C142.99703415 16.78107025 141.69594208 16.7867804 140.35542297 16.79266357 C138.9102479 16.79390892 137.46507272 16.79503402 136.01989746 16.79605103 C134.50049214 16.80067947 132.98108798 16.80570416 131.46168518 16.81109619 C127.33149398 16.82421872 123.20131904 16.83066473 119.07111025 16.83510685 C116.49123573 16.8380375 113.91136566 16.84214227 111.33149338 16.84661102 C103.26105127 16.86028488 95.19061931 16.86995237 87.12016642 16.87381291 C77.80121913 16.8782951 68.48241841 16.89585086 59.16351569 16.92481351 C51.96173508 16.94642013 44.75999575 16.95651663 37.55818307 16.95785403 C33.25605345 16.95890269 28.95406162 16.96482351 24.65196609 16.98267365 C20.60541254 16.999137 16.55910064 17.00131837 12.51252556 16.99253464 C11.02783881 16.99176336 9.54313915 16.99611899 8.05848503 17.00599289 C6.0307388 17.01868726 4.00289573 17.01105302 1.97512817 17.00241089 C0.84061029 17.00387745 -0.29390759 17.00534401 -1.46280479 17.00685501 C-4.86781385 16.58854731 -6.75151379 15.66776575 -9.49035645 13.63491821 C-10.91697863 10.78167384 -10.80069512 8.80037272 -10.49035645 5.63491821 C-7.55389865 0.79589854 -5.57540366 0.00903232 0 0 Z " fill="#000000" transform="translate(237.4903564453125,294.3650817871094)"/>
<path d="M0 0 C0.64988026 -0.00779995 1.29976052 -0.01559991 1.96933413 -0.02363622 C4.14545789 -0.04356934 6.31983519 -0.02778934 8.49597168 -0.01205444 C10.05656454 -0.01883009 11.61714941 -0.02773293 13.17771912 -0.03860474 C17.41541815 -0.06141139 21.65250899 -0.0525564 25.89021873 -0.03670931 C30.32331364 -0.02405726 34.7563562 -0.03578848 39.18945312 -0.04364014 C46.63433184 -0.05273875 54.07896263 -0.04074331 61.52380371 -0.01693726 C70.13318199 0.01027454 78.74196826 0.00146052 87.35133219 -0.02606928 C94.74085005 -0.0487534 102.13018961 -0.05196389 109.51973104 -0.03887594 C113.93419697 -0.03107754 118.34838456 -0.03005037 122.76283264 -0.04655838 C126.91302284 -0.06099388 131.06244924 -0.05099908 135.21255684 -0.0220871 C136.73634637 -0.01547124 138.2602001 -0.0173826 139.78396416 -0.02840042 C141.86327497 -0.04204995 143.94013303 -0.0249543 146.01928711 0 C147.18292534 0.00188513 148.34656357 0.00377026 149.54546356 0.00571251 C152.50964355 0.63491821 152.50964355 0.63491821 154.88794708 2.98319435 C156.86221199 6.21142198 157.06424476 7.91116727 156.50964355 11.63491821 C154.72979951 14.77083391 153.98656149 15.47594557 150.50964355 16.63491821 C148.44092603 16.7328648 146.36915403 16.76992634 144.29812622 16.77536011 C142.99703415 16.78107025 141.69594208 16.7867804 140.35542297 16.79266357 C138.9102479 16.79390892 137.46507272 16.79503402 136.01989746 16.79605103 C134.50049214 16.80067947 132.98108798 16.80570416 131.46168518 16.81109619 C127.33149398 16.82421872 123.20131904 16.83066473 119.07111025 16.83510685 C116.49123573 16.8380375 113.91136566 16.84214227 111.33149338 16.84661102 C103.26105127 16.86028488 95.19061931 16.86995237 87.12016642 16.87381291 C77.80121913 16.8782951 68.48241841 16.89585086 59.16351569 16.92481351 C51.96173508 16.94642013 44.75999575 16.95651663 37.55818307 16.95785403 C33.25605345 16.95890269 28.95406162 16.96482351 24.65196609 16.98267365 C20.60541254 16.999137 16.55910064 17.00131837 12.51252556 16.99253464 C11.02783881 16.99176336 9.54313915 16.99611899 8.05848503 17.00599289 C6.0307388 17.01868726 4.00289573 17.01105302 1.97512817 17.00241089 C0.84061029 17.00387745 -0.29390759 17.00534401 -1.46280479 17.00685501 C-4.86781385 16.58854731 -6.75151379 15.66776575 -9.49035645 13.63491821 C-10.91697863 10.78167384 -10.80069512 8.80037272 -10.49035645 5.63491821 C-7.55389865 0.79589854 -5.57540366 0.00903232 0 0 Z " fill="#000000" transform="translate(237.4903564453125,264.3650817871094)"/>
<path d="M0 0 C0.64988026 -0.00779995 1.29976052 -0.01559991 1.96933413 -0.02363622 C4.14545789 -0.04356934 6.31983519 -0.02778934 8.49597168 -0.01205444 C10.05656454 -0.01883009 11.61714941 -0.02773293 13.17771912 -0.03860474 C17.41541815 -0.06141139 21.65250899 -0.0525564 25.89021873 -0.03670931 C30.32331364 -0.02405726 34.7563562 -0.03578848 39.18945312 -0.04364014 C46.63433184 -0.05273875 54.07896263 -0.04074331 61.52380371 -0.01693726 C70.13318199 0.01027454 78.74196826 0.00146052 87.35133219 -0.02606928 C94.74085005 -0.0487534 102.13018961 -0.05196389 109.51973104 -0.03887594 C113.93419697 -0.03107754 118.34838456 -0.03005037 122.76283264 -0.04655838 C126.91302284 -0.06099388 131.06244924 -0.05099908 135.21255684 -0.0220871 C136.73634637 -0.01547124 138.2602001 -0.0173826 139.78396416 -0.02840042 C141.86327497 -0.04204995 143.94013303 -0.0249543 146.01928711 0 C147.18292534 0.00188513 148.34656357 0.00377026 149.54546356 0.00571251 C152.50964355 0.63491821 152.50964355 0.63491821 154.88794708 2.98319435 C156.86221199 6.21142198 157.06424476 7.91116727 156.50964355 11.63491821 C154.72979951 14.77083391 153.98656149 15.47594557 150.50964355 16.63491821 C148.44092603 16.7328648 146.36915403 16.76992634 144.29812622 16.77536011 C142.99703415 16.78107025 141.69594208 16.7867804 140.35542297 16.79266357 C138.9102479 16.79390892 137.46507272 16.79503402 136.01989746 16.79605103 C134.50049214 16.80067947 132.98108798 16.80570416 131.46168518 16.81109619 C127.33149398 16.82421872 123.20131904 16.83066473 119.07111025 16.83510685 C116.49123573 16.8380375 113.91136566 16.84214227 111.33149338 16.84661102 C103.26105127 16.86028488 95.19061931 16.86995237 87.12016642 16.87381291 C77.80121913 16.8782951 68.48241841 16.89585086 59.16351569 16.92481351 C51.96173508 16.94642013 44.75999575 16.95651663 37.55818307 16.95785403 C33.25605345 16.95890269 28.95406162 16.96482351 24.65196609 16.98267365 C20.60541254 16.999137 16.55910064 17.00131837 12.51252556 16.99253464 C11.02783881 16.99176336 9.54313915 16.99611899 8.05848503 17.00599289 C6.0307388 17.01868726 4.00289573 17.01105302 1.97512817 17.00241089 C0.84061029 17.00387745 -0.29390759 17.00534401 -1.46280479 17.00685501 C-4.86781385 16.58854731 -6.75151379 15.66776575 -9.49035645 13.63491821 C-10.91697863 10.78167384 -10.80069512 8.80037272 -10.49035645 5.63491821 C-7.55389865 0.79589854 -5.57540366 0.00903232 0 0 Z " fill="#000000" transform="translate(237.4903564453125,181.36508178710938)"/>
<path d="M0 0 C0.64988026 -0.00779995 1.29976052 -0.01559991 1.96933413 -0.02363622 C4.14545789 -0.04356934 6.31983519 -0.02778934 8.49597168 -0.01205444 C10.05656454 -0.01883009 11.61714941 -0.02773293 13.17771912 -0.03860474 C17.41541815 -0.06141139 21.65250899 -0.0525564 25.89021873 -0.03670931 C30.32331364 -0.02405726 34.7563562 -0.03578848 39.18945312 -0.04364014 C46.63433184 -0.05273875 54.07896263 -0.04074331 61.52380371 -0.01693726 C70.13318199 0.01027454 78.74196826 0.00146052 87.35133219 -0.02606928 C94.74085005 -0.0487534 102.13018961 -0.05196389 109.51973104 -0.03887594 C113.93419697 -0.03107754 118.34838456 -0.03005037 122.76283264 -0.04655838 C126.91302284 -0.06099388 131.06244924 -0.05099908 135.21255684 -0.0220871 C136.73634637 -0.01547124 138.2602001 -0.0173826 139.78396416 -0.02840042 C141.86327497 -0.04204995 143.94013303 -0.0249543 146.01928711 0 C147.18292534 0.00188513 148.34656357 0.00377026 149.54546356 0.00571251 C152.50964355 0.63491821 152.50964355 0.63491821 154.88794708 2.98319435 C156.86221199 6.21142198 157.06424476 7.91116727 156.50964355 11.63491821 C154.72979951 14.77083391 153.98656149 15.47594557 150.50964355 16.63491821 C148.44092603 16.7328648 146.36915403 16.76992634 144.29812622 16.77536011 C142.99703415 16.78107025 141.69594208 16.7867804 140.35542297 16.79266357 C138.9102479 16.79390892 137.46507272 16.79503402 136.01989746 16.79605103 C134.50049214 16.80067947 132.98108798 16.80570416 131.46168518 16.81109619 C127.33149398 16.82421872 123.20131904 16.83066473 119.07111025 16.83510685 C116.49123573 16.8380375 113.91136566 16.84214227 111.33149338 16.84661102 C103.26105127 16.86028488 95.19061931 16.86995237 87.12016642 16.87381291 C77.80121913 16.8782951 68.48241841 16.89585086 59.16351569 16.92481351 C51.96173508 16.94642013 44.75999575 16.95651663 37.55818307 16.95785403 C33.25605345 16.95890269 28.95406162 16.96482351 24.65196609 16.98267365 C20.60541254 16.999137 16.55910064 17.00131837 12.51252556 16.99253464 C11.02783881 16.99176336 9.54313915 16.99611899 8.05848503 17.00599289 C6.0307388 17.01868726 4.00289573 17.01105302 1.97512817 17.00241089 C0.84061029 17.00387745 -0.29390759 17.00534401 -1.46280479 17.00685501 C-4.86781385 16.58854731 -6.75151379 15.66776575 -9.49035645 13.63491821 C-10.91697863 10.78167384 -10.80069512 8.80037272 -10.49035645 5.63491821 C-7.55389865 0.79589854 -5.57540366 0.00903232 0 0 Z " fill="#000000" transform="translate(237.4903564453125,151.36508178710938)"/>
</svg>
