<?xml version="1.0" encoding="UTF-8"?>
<svg version="1.1" xmlns="http://www.w3.org/2000/svg" width="612" height="437">
<path d="M0 0 C201.96 0 403.92 0 612 0 C612 144.21 612 288.42 612 437 C410.04 437 208.08 437 0 437 C0 292.79 0 148.58 0 0 Z " fill="#C4C4C4" transform="translate(0,0)"/>
<path d="M0 0 C0.74609375 2.16137695 0.74609375 2.16137695 1.4375 4.98828125 C1.82035156 6.51291992 1.82035156 6.51291992 2.2109375 8.06835938 C2.47132813 9.13892578 2.73171875 10.20949219 3 11.3125 C3.51668822 13.413784 4.03737087 15.51409079 4.5625 17.61328125 C4.79066406 18.54954346 5.01882813 19.48580566 5.25390625 20.45043945 C5.95106652 22.83278391 6.86698996 24.80285591 8 27 C8.62265876 29.38591517 9.20029107 31.78372896 9.75 34.1875 C11.12724241 39.9809145 12.8087042 45.54166178 14.875 51.125 C17.76629201 58.94418822 19.97863709 66.89009705 22.08349609 74.95361328 C22.43855225 76.30688721 22.43855225 76.30688721 22.80078125 77.6875 C23.11269409 78.89986328 23.11269409 78.89986328 23.4309082 80.13671875 C23.83924596 81.99581888 23.83924596 81.99581888 25 83 C25.22911857 84.45521255 25.43177625 85.91458791 25.625 87.375 C26.74651062 94.03396933 29.13082256 100.11109236 31.61181641 106.36083984 C31.91780762 107.14668457 32.22379883 107.9325293 32.5390625 108.7421875 C32.81959473 109.4419873 33.10012695 110.14178711 33.38916016 110.86279297 C34.0912495 113.31926382 34.1039134 115.45773374 34 118 C35.44620728 117.99214478 35.44620728 117.99214478 36.92163086 117.98413086 C40.48672564 117.96607882 44.05181636 117.95456726 47.61694336 117.94506836 C49.16219766 117.9400286 50.70744716 117.9331968 52.25268555 117.92456055 C54.46925029 117.91247924 56.68575218 117.90676827 58.90234375 117.90234375 C59.5971434 117.89718246 60.29194305 117.89202118 61.00779724 117.88670349 C62.6722933 117.88650723 64.33665499 117.93810871 66 118 C67.91410278 119.91410278 67.12292891 122.75951006 67.12908077 125.30672359 C67.12616811 126.22181478 67.12325544 127.13690596 67.12025452 128.07972717 C67.12111053 129.04196198 67.12196655 130.00419678 67.12284851 130.99559021 C67.12451437 134.25627446 67.11896287 137.51690827 67.11352539 140.77758789 C67.11321931 143.14061449 67.11335211 145.50364119 67.11389065 147.86666775 C67.11411725 154.21896814 67.10830371 160.57124986 67.10128021 166.92354584 C67.09560304 172.87509727 67.09531806 178.82664406 67.09460449 184.77819824 C67.08934835 202.20630132 67.07538732 219.63440089 67.0625 237.0625 C67.041875 275.981875 67.02125 314.90125 67 355 C-50.48 355 -167.96 355 -289 355 C-289.33 329.92 -289.66 304.84 -290 279 C-291.304797 273.78081201 -292.65173604 268.83507533 -294.3125 263.75 C-296.34376749 257.43403951 -298.01227272 251.07466652 -299.5625 244.625 C-301.00153186 238.66473084 -302.57654888 233.04208597 -305.02734375 227.40625 C-308.70320386 218.31255592 -310.65262446 208.67982951 -312 199 C-312.66 199 -313.32 199 -314 199 C-314.23074219 198.030625 -314.46148437 197.06125 -314.69921875 196.0625 C-316.7762721 187.48209863 -319.15459389 179.0939725 -321.94921875 170.71875 C-323.06890044 166.75615903 -323.58841692 163.08869342 -324 159 C-324.66 159 -325.32 159 -326 159 C-326.10957031 158.38253906 -326.21914063 157.76507813 -326.33203125 157.12890625 C-327.16337201 152.68832999 -328.11119999 148.44909814 -329.625 144.1875 C-330.7482692 141.00396317 -331.33064528 138.41666791 -331 135 C-331.66 135 -332.32 135 -333 135 C-339 115.76595745 -339 115.76595745 -339 109 C-339.66 109 -340.32 109 -341 109 C-341.33 106.36 -341.66 103.72 -342 101 C-341.2265625 100.81824219 -340.453125 100.63648438 -339.65625 100.44921875 C-334.28794642 99.15365044 -329.107586 97.78507732 -323.98168945 95.7277832 C-321.44513183 94.79622249 -318.84351992 94.21259958 -316.22119141 93.57348633 C-312.37008528 92.57917458 -308.59756136 91.34314513 -304.8125 90.125 C-303.11857945 89.58565518 -301.42456889 89.04659296 -299.73046875 88.5078125 C-298.91497559 88.24774414 -298.09948242 87.98767578 -297.25927734 87.71972656 C-287.79969468 84.70623513 -278.28466252 81.92512628 -268.73461914 79.21533203 C-262.80557593 77.52895794 -256.90749702 75.76360447 -251.0234375 73.92578125 C-247.75671947 72.92550712 -244.47564126 71.98982973 -241.1875 71.0625 C-234.6433276 69.20941216 -228.15796808 67.19664171 -221.671875 65.15234375 C-218.78666909 64.24688019 -215.89867892 63.36084928 -213 62.5 C-208.94354026 61.29511097 -204.90969306 60.02585776 -200.875 58.75 C-192.90186146 56.23706528 -184.87663839 53.91231435 -176.84716797 51.58691406 C-171.21097746 49.95017074 -165.59517259 48.27180465 -160 46.5 C-152.32212142 44.06867178 -144.59282277 41.82925724 -136.85693359 39.59033203 C-131.0909009 37.91667599 -125.34624632 36.19559588 -119.625 34.375 C-113.85749971 32.55527506 -108.07000852 30.83185372 -102.25 29.1875 C-101.1045874 28.85854736 -101.1045874 28.85854736 -99.93603516 28.52294922 C-96.46233433 27.5546893 -93.63483204 27 -90 27 C-90 26.34 -90 25.68 -90 25 C-89.030625 24.76925781 -88.06125 24.53851563 -87.0625 24.30078125 C-79.89921265 22.56748046 -72.82808783 20.70026081 -65.8125 18.4375 C-48.9006722 13 -48.9006722 13 -42 13 C-42 12.34 -42 11.68 -42 11 C-38.08757221 9.85385832 -34.17317321 8.71474464 -30.25683594 7.58203125 C-28.92554975 7.19592586 -27.59481223 6.80792331 -26.26464844 6.41796875 C-24.34977112 5.85695836 -22.43271904 5.30338797 -20.515625 4.75 C-19.36352539 4.41484375 -18.21142578 4.0796875 -17.02441406 3.734375 C-14 3 -14 3 -10 3 C-10 2.34 -10 1.68 -10 1 C-8.71073008 0.63720544 -7.41846728 0.28503302 -6.125 -0.0625 C-5.40570313 -0.25972656 -4.68640625 -0.45695312 -3.9453125 -0.66015625 C-2 -1 -2 -1 0 0 Z " fill="#C4C4C4" transform="translate(418,41)"/>
<path d="M0 0 C0.74609375 2.16137695 0.74609375 2.16137695 1.4375 4.98828125 C1.82035156 6.51291992 1.82035156 6.51291992 2.2109375 8.06835938 C2.47132813 9.13892578 2.73171875 10.20949219 3 11.3125 C3.51668822 13.413784 4.03737087 15.51409079 4.5625 17.61328125 C4.79066406 18.54954346 5.01882813 19.48580566 5.25390625 20.45043945 C5.95106652 22.83278391 6.86698996 24.80285591 8 27 C8.62265876 29.38591517 9.20029107 31.78372896 9.75 34.1875 C11.12724241 39.9809145 12.8087042 45.54166178 14.875 51.125 C17.76629201 58.94418822 19.97863709 66.89009705 22.08349609 74.95361328 C22.43855225 76.30688721 22.43855225 76.30688721 22.80078125 77.6875 C23.11269409 78.89986328 23.11269409 78.89986328 23.4309082 80.13671875 C23.83924596 81.99581888 23.83924596 81.99581888 25 83 C25.22911857 84.45521255 25.43177625 85.91458791 25.625 87.375 C26.74651062 94.03396933 29.13082256 100.11109236 31.61181641 106.36083984 C31.91780762 107.14668457 32.22379883 107.9325293 32.5390625 108.7421875 C32.81959473 109.4419873 33.10012695 110.14178711 33.38916016 110.86279297 C34.0912495 113.31926382 34.1039134 115.45773374 34 118 C35.44620728 117.99214478 35.44620728 117.99214478 36.92163086 117.98413086 C40.48672564 117.96607882 44.05181636 117.95456726 47.61694336 117.94506836 C49.16219766 117.9400286 50.70744716 117.9331968 52.25268555 117.92456055 C54.46925029 117.91247924 56.68575218 117.90676827 58.90234375 117.90234375 C59.5971434 117.89718246 60.29194305 117.89202118 61.00779724 117.88670349 C62.6722933 117.88650723 64.33665499 117.93810871 66 118 C67.91410278 119.91410278 67.12292891 122.75951006 67.12908077 125.30672359 C67.12616811 126.22181478 67.12325544 127.13690596 67.12025452 128.07972717 C67.12111053 129.04196198 67.12196655 130.00419678 67.12284851 130.99559021 C67.12451437 134.25627446 67.11896287 137.51690827 67.11352539 140.77758789 C67.11321931 143.14061449 67.11335211 145.50364119 67.11389065 147.86666775 C67.11411725 154.21896814 67.10830371 160.57124986 67.10128021 166.92354584 C67.09560304 172.87509727 67.09531806 178.82664406 67.09460449 184.77819824 C67.08934835 202.20630132 67.07538732 219.63440089 67.0625 237.0625 C67.041875 275.981875 67.02125 314.90125 67 355 C-50.48 355 -167.96 355 -289 355 C-289.33 329.92 -289.66 304.84 -290 279 C-291.304797 273.78081201 -292.65173604 268.83507533 -294.3125 263.75 C-296.34376749 257.43403951 -298.01227272 251.07466652 -299.5625 244.625 C-301.00153186 238.66473084 -302.57654888 233.04208597 -305.02734375 227.40625 C-308.70320386 218.31255592 -310.65262446 208.67982951 -312 199 C-312.66 199 -313.32 199 -314 199 C-314.23074219 198.030625 -314.46148437 197.06125 -314.69921875 196.0625 C-316.7762721 187.48209863 -319.15459389 179.0939725 -321.94921875 170.71875 C-323.06890044 166.75615903 -323.58841692 163.08869342 -324 159 C-324.66 159 -325.32 159 -326 159 C-326.10957031 158.38253906 -326.21914063 157.76507813 -326.33203125 157.12890625 C-327.16337201 152.68832999 -328.11119999 148.44909814 -329.625 144.1875 C-330.7482692 141.00396317 -331.33064528 138.41666791 -331 135 C-331.66 135 -332.32 135 -333 135 C-339 115.76595745 -339 115.76595745 -339 109 C-339.66 109 -340.32 109 -341 109 C-341.33 106.36 -341.66 103.72 -342 101 C-341.2265625 100.81824219 -340.453125 100.63648438 -339.65625 100.44921875 C-334.28794642 99.15365044 -329.107586 97.78507732 -323.98168945 95.7277832 C-321.44513183 94.79622249 -318.84351992 94.21259958 -316.22119141 93.57348633 C-312.37008528 92.57917458 -308.59756136 91.34314513 -304.8125 90.125 C-303.11857945 89.58565518 -301.42456889 89.04659296 -299.73046875 88.5078125 C-298.91497559 88.24774414 -298.09948242 87.98767578 -297.25927734 87.71972656 C-287.79969468 84.70623513 -278.28466252 81.92512628 -268.73461914 79.21533203 C-262.80557593 77.52895794 -256.90749702 75.76360447 -251.0234375 73.92578125 C-247.75671947 72.92550712 -244.47564126 71.98982973 -241.1875 71.0625 C-234.6433276 69.20941216 -228.15796808 67.19664171 -221.671875 65.15234375 C-218.78666909 64.24688019 -215.89867892 63.36084928 -213 62.5 C-208.94354026 61.29511097 -204.90969306 60.02585776 -200.875 58.75 C-192.90186146 56.23706528 -184.87663839 53.91231435 -176.84716797 51.58691406 C-171.21097746 49.95017074 -165.59517259 48.27180465 -160 46.5 C-152.32212142 44.06867178 -144.59282277 41.82925724 -136.85693359 39.59033203 C-131.0909009 37.91667599 -125.34624632 36.19559588 -119.625 34.375 C-113.85749971 32.55527506 -108.07000852 30.83185372 -102.25 29.1875 C-101.1045874 28.85854736 -101.1045874 28.85854736 -99.93603516 28.52294922 C-96.46233433 27.5546893 -93.63483204 27 -90 27 C-90 26.34 -90 25.68 -90 25 C-89.030625 24.76925781 -88.06125 24.53851563 -87.0625 24.30078125 C-79.89921265 22.56748046 -72.82808783 20.70026081 -65.8125 18.4375 C-48.9006722 13 -48.9006722 13 -42 13 C-42 12.34 -42 11.68 -42 11 C-38.08757221 9.85385832 -34.17317321 8.71474464 -30.25683594 7.58203125 C-28.92554975 7.19592586 -27.59481223 6.80792331 -26.26464844 6.41796875 C-24.34977112 5.85695836 -22.43271904 5.30338797 -20.515625 4.75 C-19.36352539 4.41484375 -18.21142578 4.0796875 -17.02441406 3.734375 C-14 3 -14 3 -10 3 C-10 2.34 -10 1.68 -10 1 C-8.71073008 0.63720544 -7.41846728 0.28503302 -6.125 -0.0625 C-5.40570313 -0.25972656 -4.68640625 -0.45695312 -3.9453125 -0.66015625 C-2 -1 -2 -1 0 0 Z M-266 140 C-266 203.36 -266 266.72 -266 332 C-163.7 332 -61.4 332 44 332 C44 268.64 44 205.28 44 140 C-58.3 140 -160.6 140 -266 140 Z " fill="#F9F8F6" transform="translate(418,41)"/>
<path d="M0 0 C3.58273331 1.65356922 6.80973467 3.67980703 10 6 C10 6.66 10 7.32 10 8 C10.66 8 11.32 8 12 8 C13.35386936 9.65002828 14.68678142 11.3174387 16 13 C16.66 13.33 17.32 13.66 18 14 C18 14.66 18 15.32 18 16 C18.8353125 16.3403125 18.8353125 16.3403125 19.6875 16.6875 C22.62841043 18.35666538 24.6135675 20.6135675 27 23 C27.845625 23.495 28.69125 23.99 29.5625 24.5 C32.42527578 26.26170817 33.92137464 28.38495519 36 31 C37.32520503 31.68268138 38.65812182 32.3507041 40 33 C41.00642948 34.32848691 42.00692179 35.66150329 43 37 C44.485 37.495 44.485 37.495 46 38 C46 38.66 46 39.32 46 40 C47.485 40.495 47.485 40.495 49 41 C49 41.66 49 42.32 49 43 C49.66 43 50.32 43 51 43 C52.68693662 44.64614714 54.34989233 46.31693725 56 48 C58.88958476 50.38264006 61.82508948 52.6973953 64.76953125 55.01171875 C65.50558594 55.66785156 66.24164063 56.32398438 67 57 C67 57.66 67 58.32 67 59 C67.99 58.67 68.98 58.34 70 58 C70.95362501 55.70079441 70.95362501 55.70079441 71.5625 53 C72.25390625 50.25 72.25390625 50.25 73 48 C73.66 47.67 74.32 47.34 75 47 C75.65555119 44.47266765 75.65555119 44.47266765 76 42 C76.66 42 77.32 42 78 42 C78.17015625 41.34773438 78.3403125 40.69546875 78.515625 40.0234375 C80.00066748 34.66780556 81.46690216 30.33089412 85 26 C85.66 26 86.32 26 87 26 C88.66666667 27.66666667 90.33333333 29.33333333 92 31 C92.66 31.33 93.32 31.66 94 32 C96 33 96 33 98.16796875 35.23828125 C101.87799575 38.85619724 105.99118908 41.61290448 110.26757812 44.51367188 C111.87789939 45.62982048 113.4434818 46.80996917 115 48 C115 48.66 115 49.32 115 50 C115.72832031 50.25394531 116.45664062 50.50789063 117.20703125 50.76953125 C120.17787332 52.07836377 122.20881899 53.60213036 124.6875 55.6875 C129.01535099 59.26041758 133.48502869 62.45932667 138.1640625 65.5546875 C138.76992188 66.03164063 139.37578125 66.50859375 140 67 C140 67.66 140 68.32 140 69 C140.5775 69.28875 141.155 69.5775 141.75 69.875 C143.83333333 70.91666667 145.91666667 71.95833333 148 73 C148 73.66 148 74.32 148 75 C148.66 75 149.32 75 150 75 C150 75.66 150 76.32 150 77 C150.86238281 77.41958984 150.86238281 77.41958984 151.7421875 77.84765625 C153.93100463 78.9647861 156.02767263 80.15757208 158.125 81.4375 C158.80820312 81.84871094 159.49140625 82.25992188 160.1953125 82.68359375 C162 84 162 84 164 87 C165.423125 87.7115625 165.423125 87.7115625 166.875 88.4375 C170.03742885 90.01871442 171.56402852 91.4923823 174 94 C179.14390477 98.13435337 184.61141196 101.81847426 190.09375 105.484375 C191.03734375 106.23460937 191.03734375 106.23460937 192 107 C192 107.66 192 108.32 192 109 C192.5775 109.28875 193.155 109.5775 193.75 109.875 C194.4925 110.24625 195.235 110.6175 196 111 C196.639375 111.268125 197.27875 111.53625 197.9375 111.8125 C200.75179038 113.43284901 202.70903995 115.70903995 205 118 C205.928125 118.556875 206.85625 119.11375 207.8125 119.6875 C208.534375 120.120625 209.25625 120.55375 210 121 C210 121.66 210 122.32 210 123 C210.81210937 123.37125 210.81210937 123.37125 211.640625 123.75 C214.5282849 125.27988604 217.09776018 127.09150997 219.75 129 C220.73484375 129.70125 221.7196875 130.4025 222.734375 131.125 C223.48203125 131.74375 224.2296875 132.3625 225 133 C225 133.66 225 134.32 225 135 C206.4375087 135.03163437 187.87501395 135.05142107 169.3125 135.0625 C168.60637526 135.0629343 167.90025052 135.06336861 167.17272806 135.06381607 C117.25912855 135.09365876 67.34961332 134.87932413 17.4375 134.5 C16.2561481 134.49103943 16.2561481 134.49103943 15.0509305 134.48189783 C-4.96611805 134.3298988 -24.98309354 134.16973959 -45 134 C-45.12475809 128.78971835 -45.21487761 123.58032949 -45.2746582 118.36889648 C-45.29961031 116.60083853 -45.33358499 114.83288165 -45.37719727 113.06518555 C-45.63072316 102.5155256 -45.49873482 94.34955511 -40 85 C-39.67 84.01 -39.34 83.02 -39 82 C-38.34 82 -37.68 82 -37 82 C-36.855625 81.4225 -36.71125 80.845 -36.5625 80.25 C-36.04166667 78.16666667 -35.52083333 76.08333333 -35 74 C-34.34 74 -33.68 74 -33 74 C-32.938125 73.236875 -32.87625 72.47375 -32.8125 71.6875 C-31.65229384 66.42194896 -29.29919425 61.85535728 -27 57 C-26.30762739 55.43965303 -25.61973397 53.87730648 -24.9375 52.3125 C-23.71281099 49.54470284 -22.43131977 46.82431259 -21.0625 44.125 C-17.06281958 36.2354343 -13.57490006 28.08846103 -10 20 C-9.34 20 -8.68 20 -8 20 C-7.8453125 18.95199219 -7.8453125 18.95199219 -7.6875 17.8828125 C-6.89423794 14.55652045 -5.5794714 11.90485138 -4 8.875 C-2.4616925 5.90932064 -1.05677648 3.17032944 0 0 Z " fill="#F9F8F6" transform="translate(216,224)"/>
<path d="M0 0 C1.32 0 2.64 0 4 0 C4.67286212 2.41509441 5.33846012 4.83180356 6 7.25 C6.28617187 8.27287109 6.28617187 8.27287109 6.578125 9.31640625 C7.49957044 12.70600912 8 15.45778976 8 19 C8.66 19 9.32 19 10 19 C11.32542186 23.30863438 12.63296513 27.62250005 13.9375 31.9375 C14.31068359 33.14986328 14.68386719 34.36222656 15.06835938 35.61132812 C17.0260591 42.11935694 18.53878605 48.2135661 19 55 C19.66 55 20.32 55 21 55 C21.103125 56.155 21.20625 57.31 21.3125 58.5 C21.7697624 62.13269569 22.72517331 65.3004893 24.10546875 68.70703125 C25.62306783 72.59712147 26.8500706 76.58607135 28.1328125 80.55859375 C28.77355839 82.91677302 28.77355839 82.91677302 30 84 C30 85.98 30 87.96 30 90 C8.22 90 -13.56 90 -36 90 C-35.67 87.69 -35.34 85.38 -35 83 C-34.36002702 75.57631338 -35.93247796 68.79805317 -39 62 C-41.16973793 59.50503368 -43.28168024 57.93418906 -46 56 C-46 55.34 -46 54.68 -46 54 C-46.86625 53.71125 -47.7325 53.4225 -48.625 53.125 C-50.68844675 52.43718442 -52.73687627 51.69855062 -54.75 50.875 C-62.58503092 48.7655686 -70.2375132 50.15021591 -78 52 C-78 52.66 -78 53.32 -78 54 C-79.546875 54.928125 -79.546875 54.928125 -81.125 55.875 C-86.46276929 59.58208621 -88.98699027 64.94659215 -91 71 C-91.48384635 75.06617032 -91.54479696 78.93815938 -91 83 C-90.67 83.33 -90.34 83.66 -90 84 C-90 85.98 -90 87.96 -90 90 C-149.07 90 -208.14 90 -269 90 C-269 116.73 -269 143.46 -269 171 C-269.33 171 -269.66 171 -270 171 C-270.16604736 170.38592285 -270.33209473 169.7718457 -270.50317383 169.13916016 C-271.27154997 166.30072591 -272.04201488 163.46286247 -272.8125 160.625 C-273.07353516 159.65949219 -273.33457031 158.69398438 -273.60351562 157.69921875 C-275.10129143 152.18888305 -276.66583231 146.7065275 -278.32348633 141.2421875 C-279.23110255 138.23405059 -280.08543422 135.21178499 -280.9375 132.1875 C-283.95930935 121.57656641 -287.22999565 111.05819449 -290.81640625 100.625 C-291.08324219 99.84125 -291.35007812 99.0575 -291.625 98.25 C-291.98464844 97.20585937 -291.98464844 97.20585937 -292.3515625 96.140625 C-293.06621643 93.78140599 -293.55106251 91.42256834 -294 89 C-291.12854755 87.98867084 -288.25354777 86.99075598 -285.375 86 C-284.56675781 85.71382813 -283.75851562 85.42765625 -282.92578125 85.1328125 C-278.46885356 83.61093475 -274.77962528 82.62876697 -270 83 C-270 82.34 -270 81.68 -270 81 C-268.23849609 80.54560547 -268.23849609 80.54560547 -266.44140625 80.08203125 C-257.38474901 77.72959128 -248.3694172 75.3070986 -239.43383789 72.5246582 C-236.08655844 71.50542166 -233.54267925 71 -230 71 C-230 70.34 -230 69.68 -230 69 C-228.20369141 68.54560547 -228.20369141 68.54560547 -226.37109375 68.08203125 C-218.4552149 66.05363835 -210.6026846 63.97974577 -202.875 61.3125 C-198.30593864 59.73713083 -193.85710806 58.42093975 -189.11791992 57.49511719 C-186.38148464 56.85540644 -183.83347065 55.80223787 -181.21411133 54.79785156 C-177.47701947 53.45119634 -173.64929207 52.45699965 -169.8125 51.4375 C-164.0557515 49.93647325 -164.0557515 49.93647325 -158.44921875 47.97265625 C-155.71647249 46.88740295 -152.94812064 46.20045169 -150.09277344 45.51367188 C-146.74131454 44.69105527 -143.43497269 43.72445153 -140.125 42.75 C-139.3930542 42.53529053 -138.6611084 42.32058105 -137.90698242 42.09936523 C-132.66441642 40.54194089 -127.48642586 38.83277046 -122.3125 37.0625 C-113.69372059 34.12198646 -104.95593703 31.72820858 -96.15625 29.39453125 C-91.83692442 28.24374417 -87.55672271 26.98870597 -83.2800293 25.68920898 C-81.3755754 25.11352922 -79.46395496 24.56162701 -77.55078125 24.015625 C-72.74822975 22.64195791 -67.96747358 21.2000552 -63.1875 19.75 C-62.16994629 19.4413501 -61.15239258 19.1327002 -60.10400391 18.81469727 C-53.99358096 16.94882058 -47.92216956 14.99831715 -41.875 12.9375 C-29.0184433 8.5677891 -15.90672481 4.95221634 -2.765625 1.54296875 C-0.99240771 1.14841609 -0.99240771 1.14841609 0 0 Z " fill="#C4C4C4" transform="translate(398,69)"/>
<path d="M0 0 C2.35546875 2.015625 2.35546875 2.015625 4 4 C4 4.66 4 5.32 4 6 C4.60328125 6.21785156 5.2065625 6.43570313 5.828125 6.66015625 C10.3170061 9.42937607 11.54346398 15.16590605 13 20 C14.37400984 28.05867679 12.47772972 34.25290317 8 41 C5.375 43.9375 5.375 43.9375 3 46 C2.443125 46.598125 1.88625 47.19625 1.3125 47.8125 C0 49 0 49 -2 49 C-2 49.66 -2 50.32 -2 51 C-6.66989033 52.82576709 -10.90569095 53.35364153 -15.875 53.3125 C-16.58390381 53.30686035 -17.29280762 53.3012207 -18.02319336 53.29541016 C-26.0547662 53.10869388 -31.52087716 51.14194903 -37.46484375 45.671875 C-43.33904613 39.27452482 -45.53068878 31.5517501 -45.390625 23.01953125 C-44.50228099 16.15263208 -41.48555138 9.29126704 -37 4 C-35.68352881 3.30062468 -34.34977849 2.63270867 -33 2 C-32.32324219 1.28070313 -32.32324219 1.28070313 -31.6328125 0.546875 C-23.2122622 -7.43048844 -9.28766328 -4.35485225 0 0 Z " fill="#F9F8F6" transform="translate(392,212)"/>
<path d="M0 0 C0.33 0 0.66 0 1 0 C1 5.61 1 11.22 1 17 C0.67 17 0.34 17 0 17 C-0.53341184 15.42085985 -1.05125763 13.83645613 -1.5625 12.25 C-1.85253906 11.36828125 -2.14257812 10.4865625 -2.44140625 9.578125 C-3.03111145 6.85640871 -2.98770553 5.56911383 -2 3 C-1.34 2.01 -0.68 1.02 0 0 Z " fill="#CECDCB" transform="translate(128,223)"/>
<path d="M0 0 C0.66 0 1.32 0 2 0 C2.33 0.99 2.66 1.98 3 3 C2 5 2 5 0 5.9375 C-2.34608221 6.8891846 -2.34608221 6.8891846 -3 10 C-3.66 10 -4.32 10 -5 10 C-3.85569823 6.12697862 -2.76679902 2.99736561 0 0 Z " fill="#EEEEEE" transform="translate(301,250)"/>
<path d="M0 0 C0 0.66 0 1.32 0 2 C-3.3 2 -6.6 2 -10 2 C-6.19832777 -0.53444815 -4.31588991 -1.33941411 0 0 Z " fill="#EBEBEA" transform="translate(356,60)"/>
<path d="M0 0 C-0.639375 0.268125 -1.27875 0.53625 -1.9375 0.8125 C-4.33131686 1.88667752 -4.33131686 1.88667752 -5 5 C-5.99 4.67 -6.98 4.34 -8 4 C-8 3.01 -8 2.02 -8 1 C-3.375 -1.125 -3.375 -1.125 0 0 Z " fill="#EEEDEB" transform="translate(392,49)"/>
</svg>
